<svg xmlns="http://www.w3.org/2000/svg" xmlns:xlink="http://www.w3.org/1999/xlink" viewBox="0 0 857 382.55"><defs><style>.cls-1,.cls-13,.cls-14,.cls-15,.cls-16,.cls-8{fill:#e2e2e2;}.cls-1,.cls-13,.cls-14,.cls-15,.cls-16{stroke:#8da6aa;}.cls-1,.cls-10,.cls-11,.cls-13,.cls-14,.cls-15,.cls-16{stroke-linecap:round;}.cls-1,.cls-10,.cls-11,.cls-13,.cls-14,.cls-15,.cls-16,.cls-6,.cls-7{stroke-miterlimit:10;}.cls-1{stroke-width:4.47px;}.cls-2{fill:#ff6161;}.cls-3{fill:#f2f2f2;}.cls-4{fill:#191616;}.cls-5{fill:url(#radial-gradient);}.cls-6,.cls-7{fill:#8da6aa;stroke:#e2e2e2;}.cls-6{stroke-width:6.02px;}.cls-7{stroke-width:5.43px;}.cls-9{fill:url(#radial-gradient-2);}.cls-10,.cls-12{fill:#c43131;}.cls-10,.cls-11{stroke:#c43131;}.cls-10{stroke-width:7px;}.cls-11{fill:none;stroke-width:6px;}.cls-13{stroke-width:6.02px;}.cls-14{stroke-width:16px;}.cls-15{stroke-width:18px;}.cls-16{stroke-width:25px;}</style><radialGradient id="radial-gradient" cx="198.01" cy="320.58" fy="313.697411594888" r="29.5" gradientTransform="translate(0 -2.54) scale(1 1.01)" gradientUnits="userSpaceOnUse"><stop offset="0.18" stop-color="#ccc"/><stop offset="0.42" stop-color="#b9b9b9"/><stop offset="0.91" stop-color="#868686"/><stop offset="0.97" stop-color="gray"/></radialGradient><radialGradient id="radial-gradient-2" cx="697.01" cy="319.58" fy="312.697411594888" r="29.5" xlink:href="#radial-gradient"/></defs><g id="Layer_2" data-name="Layer 2"><g id="Layer_2-2" data-name="Layer 2"><ellipse class="cls-1" cx="827" cy="189.8" rx="16" ry="25.75"/><path class="cls-2" d="M845,240a64.57,64.57,0,0,1-64.57,64.57H95.57c-35.66,0-55.57-29.34-55.57-65l8.17-114.36L822.83,132c12.6,30.43,20.69,56.27,22.17,62.58C849,211.55,845,240,845,240Z"/><path class="cls-3" d="M822.83,132,48.17,125.19,51,85.55c0-35.66,24-79,72-84,41.67-4.34,548,1,607,9C767.12,15.58,801.46,80.37,822.83,132Z"/><circle class="cls-4" cx="196.5" cy="317.05" r="65.5"/><circle class="cls-3" cx="197.5" cy="316.05" r="46.49"/><path class="cls-2" d="M197.5,272.57A43.48,43.48,0,1,1,154,316.05a43.54,43.54,0,0,1,43.48-43.48m0-6a49.5,49.5,0,1,0,49.5,49.5,49.5,49.5,0,0,0-49.5-49.5Z"/><circle class="cls-5" cx="197.5" cy="319.05" r="29.5"/><circle class="cls-4" cx="695.5" cy="317.05" r="65.5"/><circle class="cls-3" cx="696.5" cy="316.05" r="46.49"/><path class="cls-2" d="M696.5,272.57A43.48,43.48,0,1,1,653,316.05a43.54,43.54,0,0,1,43.48-43.48m0-6a49.5,49.5,0,1,0,49.5,49.5,49.5,49.5,0,0,0-49.5-49.5Z"/><path class="cls-6" d="M714,21.55c22,1,37.35,10.77,42,18,17.8,27.67,49.8,90.51,47,86l-209-4s-3-84-2-83c1-12,4-18,34-18C640,20.55,714,21.55,714,21.55Z"/><path class="cls-7" d="M536.67,21.05c13.82,0,31.71-2,34.15,22,0,0,4.78,80,3.25,77l-142.28,1s-2.44-84-1.62-83c.81-12,3.25-18,27.64-18C469.19,20.05,536.67,21.05,536.67,21.05Z"/><path class="cls-7" d="M375.67,19.05c13.82,0,31.71-2,34.15,22,0,0,4.78,80,3.25,77l-142.28,1s-2.44-84-1.62-83c.81-12,3.25-18,27.64-18C308.19,18.05,375.67,19.05,375.67,19.05Z"/><path class="cls-7" d="M213.67,19.05c13.82,0,31.71-2,34.15,22,0,0,4.78,80,3.25,77l-142.28,1s-2.44-84-1.62-83c.81-12,3.25-18,27.64-18C146.19,18.05,213.67,19.05,213.67,19.05Z"/><path class="cls-8" d="M611.42,110.55l15.56-1s.94-78.9-8.75-77C608,34.55,611.42,110.55,611.42,110.55Z"/><circle class="cls-9" cx="696.5" cy="318.05" r="29.5"/><path class="cls-8" d="M698,33.55c18,1,34-3,45,11s29,55,29,55-41-50-44-53-35-14-35-14"/><line class="cls-10" x1="116.5" y1="155.05" x2="225.5" y2="155.05"/><line class="cls-10" x1="116.5" y1="165.05" x2="225.5" y2="165.05"/><line class="cls-10" x1="116.5" y1="175.05" x2="225.5" y2="175.05"/><line class="cls-10" x1="116.5" y1="185.05" x2="225.5" y2="185.05"/><line class="cls-10" x1="116.5" y1="195.05" x2="225.5" y2="195.05"/><line class="cls-10" x1="116.5" y1="205.05" x2="225.5" y2="205.05"/><path class="cls-11" d="M578.61,163.05l.91,49.32A22,22,0,0,0,601.58,234l128.73-.08a18.84,18.84,0,0,1,18.82,17.59l.66,9.76a14.31,14.31,0,0,0,14.53,13.34l15-.28a14.3,14.3,0,0,0,14-14.67l-2.51-94.9A18.22,18.22,0,0,0,772.69,147l-177.38-.9A16.62,16.62,0,0,0,578.61,163.05Z"/><ellipse class="cls-12" cx="642" cy="185.55" rx="25" ry="13"/><line class="cls-13" x1="608" y1="184.55" x2="649" y2="184.55"/><line class="cls-13" x1="270" y1="296.55" x2="613" y2="296.55"/><line class="cls-14" x1="849" y1="294.55" x2="781" y2="294.55"/><line class="cls-14" x1="844" y1="288.55" x2="844" y2="251.55"/><line class="cls-13" x1="608" y1="181.55" x2="620" y2="181.55"/><ellipse class="cls-1" cx="825" cy="197.8" rx="16" ry="25.75"/><line class="cls-15" x1="103" y1="291.55" x2="9" y2="291.55"/><line class="cls-16" x1="31.5" y1="284.05" x2="31.5" y2="247.05"/></g></g></svg>